<?xml version="1.0" encoding="UTF-8" ?>
<!DOCTYPE svg PUBLIC "-//W3C//DTD SVG 1.1//EN" "http://www.w3.org/Graphics/SVG/1.1/DTD/svg11.dtd">
<svg width="1256pt" height="796pt" viewBox="0 0 1256 796" version="1.1" xmlns="http://www.w3.org/2000/svg">
<path fill="#fefffd" d=" M 0.00 0.00 L 1256.00 0.00 L 1256.00 796.00 L 0.00 796.00 L 0.00 0.00 Z" />
<path fill="#b4dde5" d=" M 66.47 29.47 C 68.82 26.83 72.59 27.08 75.79 27.27 C 95.76 29.03 115.72 31.19 135.76 32.22 C 145.07 31.27 154.37 32.13 163.69 32.32 C 169.23 32.11 174.51 34.07 179.98 34.54 C 203.89 37.59 227.87 40.49 251.99 41.36 C 264.57 42.35 275.58 49.07 286.81 54.21 C 291.06 56.01 294.46 59.40 298.87 60.87 C 303.74 62.55 308.90 63.14 314.02 63.28 C 321.59 63.76 329.16 64.27 336.71 65.09 C 348.79 65.54 360.82 67.30 372.93 66.69 C 383.62 66.89 394.29 67.53 404.99 67.65 C 416.75 68.72 428.57 68.44 440.35 69.25 C 447.72 68.92 454.39 73.74 461.82 72.43 C 468.98 71.14 476.13 69.69 483.24 68.15 C 486.54 67.30 490.04 66.78 493.02 65.03 C 494.91 61.76 495.71 57.99 497.10 54.50 C 501.92 54.81 506.23 57.21 510.20 59.78 C 511.70 60.56 512.20 62.25 512.49 63.79 C 513.33 67.95 513.12 72.24 513.90 76.41 C 514.24 78.07 515.02 80.29 517.06 80.29 C 524.19 80.87 531.28 79.27 538.41 79.42 C 545.60 79.55 552.80 79.66 559.99 79.53 C 570.11 79.27 580.10 81.44 590.21 81.24 C 598.13 81.06 605.99 82.42 613.90 82.32 C 621.63 82.30 629.26 84.01 637.01 83.62 C 645.22 83.22 653.20 85.88 661.42 85.51 C 673.87 85.83 686.35 85.25 698.78 86.29 C 703.18 86.56 707.59 86.16 711.99 85.82 C 719.14 85.28 726.17 87.66 733.33 87.01 C 739.94 86.22 746.31 88.85 752.92 88.61 C 762.93 89.81 773.03 89.25 783.05 90.36 C 792.17 90.43 800.98 93.34 810.11 93.34 C 820.73 93.33 831.37 93.29 841.99 93.84 C 852.63 94.94 863.34 94.13 874.01 94.66 C 899.95 96.71 926.00 96.58 952.01 96.45 C 959.60 96.51 966.36 92.69 973.47 90.60 C 984.45 87.06 994.98 81.40 1006.70 80.75 C 1017.13 80.02 1027.52 78.66 1037.97 78.37 C 1049.56 78.63 1061.07 77.04 1072.65 76.71 C 1080.45 76.63 1088.16 75.04 1095.98 75.27 C 1105.62 75.49 1115.30 74.97 1124.90 76.25 C 1140.83 77.18 1156.78 78.12 1172.74 78.58 C 1182.02 79.41 1192.14 81.06 1198.99 87.98 C 1201.79 91.15 1205.04 94.95 1204.40 99.50 C 1203.92 104.04 1203.33 108.60 1203.90 113.16 C 1204.47 117.84 1202.82 122.37 1202.63 127.01 C 1202.38 131.34 1203.48 135.63 1203.05 139.96 C 1202.46 145.59 1202.25 151.25 1201.77 156.88 C 1197.14 157.66 1192.48 158.20 1187.89 159.09 C 1182.64 160.14 1177.28 159.53 1172.00 160.08 C 1164.07 160.96 1156.14 159.77 1148.21 159.82 C 1136.53 159.78 1124.86 159.39 1113.18 159.66 C 1109.23 159.76 1105.25 159.59 1101.42 158.61 C 1096.95 157.41 1092.28 158.09 1087.76 157.29 C 1081.64 156.17 1075.34 156.73 1069.30 155.09 C 1057.94 153.81 1046.53 152.83 1035.10 152.43 C 1030.61 152.12 1026.25 150.96 1021.79 150.54 C 1016.14 150.01 1010.39 149.23 1005.25 146.70 C 1000.33 144.27 995.01 142.70 990.31 139.83 C 986.87 137.75 983.30 135.92 979.65 134.25 C 968.66 129.01 958.87 120.93 946.76 118.31 C 941.55 117.01 936.40 115.29 931.01 115.00 C 922.30 114.46 913.67 113.14 904.97 112.58 C 896.36 112.16 887.73 112.50 879.13 111.79 C 866.09 110.81 853.02 111.60 839.97 111.27 C 821.66 112.11 803.32 111.72 785.01 110.99 C 780.66 111.03 776.35 111.69 772.00 111.69 C 762.92 111.75 753.82 110.67 744.75 111.64 C 738.59 112.47 732.59 110.30 726.45 110.46 C 723.33 110.45 720.20 110.84 717.10 110.50 C 713.84 110.13 710.95 107.40 707.56 108.53 C 701.75 109.82 695.84 108.37 689.98 108.74 C 684.06 109.10 678.47 106.60 672.58 106.67 C 659.02 106.67 645.50 105.65 631.96 105.36 C 623.68 105.04 615.46 103.72 607.17 103.70 C 600.61 103.80 594.15 102.40 587.59 102.45 C 579.62 102.44 571.37 101.27 563.65 103.82 C 560.55 104.81 557.34 105.77 554.06 105.26 C 548.44 104.53 542.74 104.57 537.13 103.69 C 529.87 102.34 522.40 102.87 515.19 101.07 C 510.82 117.21 512.37 134.15 511.38 150.68 C 510.90 160.11 513.75 169.24 514.59 178.57 C 515.49 187.99 517.81 197.22 520.95 206.13 C 523.08 212.12 524.22 218.45 526.94 224.22 C 528.85 228.40 531.55 232.14 533.79 236.15 C 538.65 246.02 545.29 255.13 553.71 262.28 C 559.62 268.09 566.75 272.45 572.91 278.00 C 576.24 280.70 576.88 285.72 575.71 289.63 C 573.60 293.73 570.02 297.21 565.78 299.06 C 561.08 300.92 556.77 297.39 552.83 295.34 C 548.31 293.00 544.71 289.37 541.42 285.56 C 536.19 279.43 528.99 275.17 524.74 268.18 C 520.78 261.82 515.16 256.57 512.19 249.61 C 509.48 243.35 504.55 238.26 502.54 231.67 C 499.85 220.87 496.22 210.34 493.30 199.60 C 487.49 182.85 486.56 165.04 483.08 147.77 C 481.97 137.50 480.93 127.18 478.81 117.05 C 478.33 115.53 477.88 113.17 475.79 113.42 C 466.72 112.61 457.83 115.68 448.78 115.43 C 447.35 115.57 446.45 114.32 446.06 113.12 C 444.11 107.55 445.58 101.45 444.00 95.85 C 439.64 93.65 434.61 94.16 429.90 93.76 C 420.71 92.73 411.49 91.95 402.26 91.41 C 389.07 92.12 375.96 90.31 362.82 89.56 C 354.95 88.56 347.01 88.71 339.16 87.54 C 328.58 87.37 317.86 87.27 307.47 89.60 C 298.54 91.54 289.34 92.15 280.55 94.75 C 274.17 96.93 267.70 98.84 261.50 101.50 C 255.04 103.63 248.09 103.64 241.63 105.85 C 230.10 108.56 218.25 109.33 206.47 110.07 C 200.59 109.96 194.86 108.28 188.97 108.24 C 182.59 107.94 176.39 106.34 170.23 104.76 C 165.85 103.57 161.28 103.96 156.82 103.43 C 149.89 102.58 143.36 99.42 136.30 99.52 C 132.21 99.59 128.16 98.92 124.24 97.79 C 119.34 96.35 114.19 96.87 109.19 96.10 C 102.44 95.05 95.59 96.10 88.83 95.19 C 81.51 94.28 74.07 95.39 66.78 94.27 C 62.64 92.86 58.83 90.25 55.94 86.99 C 52.78 82.79 55.97 77.79 57.40 73.59 C 58.84 70.48 58.40 67.03 58.13 63.74 C 57.57 58.96 60.53 54.68 60.50 49.93 C 60.64 42.85 61.28 34.82 66.47 29.47 Z" />
<path fill="#edfe84" d=" M 187.19 132.15 C 192.52 130.60 197.97 129.06 203.57 129.30 C 206.66 144.28 210.66 159.06 213.25 174.15 C 213.78 177.17 214.29 181.49 210.41 182.45 C 201.11 185.36 191.51 187.56 182.61 191.69 C 175.31 194.96 167.72 198.20 161.98 203.96 C 157.86 208.16 153.05 211.83 150.01 216.97 C 147.11 221.79 143.94 226.55 142.18 231.95 C 139.87 238.72 140.51 246.00 140.56 253.04 C 140.83 263.21 145.92 272.27 150.06 281.28 C 156.55 293.48 164.70 304.71 171.36 316.81 C 175.84 324.43 181.05 331.59 185.94 338.95 C 191.28 348.64 196.03 358.67 200.06 368.98 C 203.98 377.53 206.79 386.62 208.19 395.93 C 209.26 405.59 210.56 415.50 208.21 425.09 C 206.22 433.04 204.36 441.12 200.71 448.51 C 197.77 454.54 195.94 461.25 191.37 466.35 C 186.22 472.20 181.82 478.71 176.08 484.03 C 170.25 489.54 164.58 495.50 157.27 499.09 C 149.34 502.75 141.30 506.15 133.16 509.32 C 124.43 513.43 114.74 514.65 105.69 517.84 C 101.21 519.19 96.76 521.02 92.05 521.31 C 89.36 520.39 88.58 517.39 87.64 515.04 C 84.86 506.80 81.47 498.76 79.32 490.32 C 77.94 484.83 75.35 479.65 74.58 474.02 C 75.40 471.56 78.44 471.18 80.53 470.28 C 91.23 467.09 102.16 464.25 112.06 458.94 C 120.36 454.35 129.03 449.67 134.90 441.98 C 138.69 436.88 142.55 431.60 144.33 425.41 C 146.20 419.12 147.80 412.55 147.04 405.95 C 146.09 396.83 143.67 387.76 139.27 379.68 C 134.64 370.82 129.60 362.17 124.12 353.80 C 116.65 342.42 110.02 330.52 103.28 318.70 C 98.03 308.93 92.78 299.07 89.43 288.46 C 86.69 279.78 83.23 271.18 82.62 262.01 C 82.24 255.68 81.04 249.35 81.85 243.01 C 82.79 235.33 83.20 227.46 85.99 220.16 C 88.50 213.65 90.57 206.95 93.65 200.67 C 97.07 193.43 101.71 186.86 106.38 180.39 C 119.89 163.98 137.67 151.33 157.17 142.97 C 167.03 138.97 177.06 135.40 187.19 132.15 Z" />
<path fill="#b4dde5" d=" M 587.81 133.63 C 591.13 132.69 594.54 131.84 598.02 131.77 C 602.88 131.61 607.23 135.56 607.78 140.36 C 609.28 149.11 612.09 157.54 614.02 166.19 C 617.26 182.10 622.44 197.69 623.59 213.97 C 623.78 221.22 624.08 228.51 623.32 235.74 C 619.80 237.15 615.35 237.72 613.08 241.07 C 611.51 245.46 612.81 250.23 613.33 254.71 C 615.39 266.70 615.69 278.88 616.28 291.00 C 616.71 301.69 615.59 312.33 614.97 322.98 C 614.61 328.42 614.87 333.88 614.45 339.32 C 612.42 358.32 608.83 377.14 607.30 396.20 C 606.64 403.13 605.42 410.07 606.07 417.06 C 615.13 418.17 624.11 415.58 632.85 413.46 C 647.40 409.75 662.39 408.24 677.03 404.99 C 681.87 404.10 686.77 402.39 691.74 403.10 C 696.05 404.95 698.74 409.10 702.12 412.19 C 702.93 418.45 704.83 424.58 704.64 430.95 C 704.47 445.12 706.30 459.20 707.40 473.31 C 707.83 483.36 708.86 493.39 710.61 503.30 C 710.70 513.83 709.94 524.43 711.29 534.89 C 712.07 539.41 713.71 544.81 718.39 546.65 C 721.68 547.01 724.87 545.67 728.08 545.10 C 728.93 551.42 727.31 557.67 727.25 563.98 C 727.09 572.44 725.65 580.79 724.93 589.20 C 722.61 589.33 720.29 589.36 717.98 589.23 C 710.39 588.40 702.24 587.55 695.31 591.50 C 691.28 593.02 686.96 595.43 682.56 594.43 C 678.64 591.24 677.66 585.79 677.90 581.00 C 678.21 576.33 678.05 571.66 678.01 566.99 C 677.98 561.92 679.27 556.98 679.50 551.93 C 679.53 543.84 680.47 535.79 680.44 527.69 C 680.36 520.08 681.66 512.54 681.42 504.92 C 681.22 498.60 682.62 492.28 681.71 485.98 C 680.85 480.68 680.23 475.34 680.40 469.97 C 680.72 462.09 676.96 454.90 676.06 447.18 C 675.19 443.77 675.03 438.43 670.84 437.52 C 664.61 438.01 659.05 441.43 652.95 442.64 C 645.12 444.24 637.74 447.31 630.15 449.71 C 621.78 451.95 613.48 454.66 605.74 458.60 C 601.54 460.68 598.75 464.57 596.33 468.44 C 592.85 474.02 588.41 479.15 586.45 485.55 C 582.75 497.74 581.28 510.46 579.99 523.09 C 579.05 531.00 577.01 538.81 577.31 546.84 C 577.65 559.87 577.35 572.93 578.25 585.95 C 578.50 599.32 578.32 612.70 578.36 626.08 C 578.33 631.95 580.75 637.39 582.35 642.94 C 586.92 657.68 590.29 673.19 598.79 686.32 C 602.24 691.64 607.89 696.30 608.37 702.98 C 605.91 715.01 599.92 725.89 595.35 737.19 C 591.65 747.39 585.35 756.28 579.04 765.00 C 575.86 769.20 571.14 771.78 567.44 775.45 C 565.25 777.29 563.15 779.85 560.09 780.02 C 556.69 778.18 554.75 774.61 552.07 771.94 C 548.16 767.89 544.39 762.97 544.26 757.11 C 544.53 751.70 547.67 747.00 550.70 742.72 C 554.85 737.12 558.59 731.24 562.45 725.45 C 564.04 722.97 565.81 720.30 565.61 717.22 C 565.42 711.01 564.46 704.73 561.94 699.01 C 559.29 692.48 555.48 686.34 554.31 679.30 C 552.24 668.23 550.46 657.11 548.86 645.96 C 546.78 635.26 545.45 624.37 545.54 613.45 C 545.19 602.71 543.67 592.01 544.29 581.25 C 544.95 573.26 543.64 565.25 544.60 557.28 C 545.12 552.65 544.66 548.01 544.62 543.38 C 544.62 541.40 544.67 539.42 544.75 537.45 C 546.44 526.91 547.40 516.29 548.58 505.69 C 550.02 496.93 549.81 487.91 552.45 479.37 C 555.37 469.99 556.52 460.12 559.83 450.86 C 563.44 442.61 566.17 434.02 569.47 425.65 C 572.13 417.24 571.93 408.27 573.82 399.70 C 577.99 382.92 576.29 365.53 576.43 348.44 C 576.14 340.65 578.21 333.07 579.29 325.41 C 580.77 317.79 581.17 310.02 582.43 302.38 C 585.27 287.31 581.53 272.10 581.80 256.96 C 582.04 248.41 579.34 240.21 577.93 231.87 C 576.89 226.02 576.19 220.10 574.54 214.38 C 571.79 204.55 570.78 194.29 567.45 184.61 C 565.08 178.07 563.47 171.30 561.99 164.52 C 559.85 157.81 565.47 152.13 569.30 147.32 C 575.11 142.36 580.00 135.49 587.81 133.63 Z" />
<path fill="#edfe84" d=" M 257.09 143.93 C 264.95 142.80 272.92 143.59 280.71 144.86 C 290.34 146.36 300.19 144.67 309.81 146.09 C 312.64 146.40 313.47 149.58 313.10 151.97 C 311.87 165.28 311.43 178.64 310.16 191.94 C 309.13 198.25 308.21 204.59 308.58 211.00 C 309.07 220.74 306.28 230.26 306.60 239.99 C 306.68 245.67 306.02 251.33 305.56 256.99 C 303.62 274.27 304.96 291.72 303.10 309.02 C 301.94 317.84 302.58 326.77 301.51 335.60 C 299.88 347.65 300.42 359.87 298.85 371.93 C 297.81 379.54 298.77 387.27 297.60 394.88 C 295.93 405.55 295.80 416.36 295.42 427.13 C 294.63 436.32 294.05 445.53 293.53 454.74 C 293.69 462.33 291.81 469.94 293.49 477.47 C 300.91 478.81 308.50 478.26 315.96 479.32 C 327.43 480.71 339.11 480.14 350.47 482.46 C 352.73 489.87 350.55 497.48 350.12 504.97 C 349.36 511.89 349.87 518.86 349.53 525.81 C 349.28 527.72 349.23 530.60 346.83 531.02 C 344.60 531.67 342.24 531.20 339.98 531.01 C 331.05 529.85 322.01 529.83 313.06 528.81 C 301.93 527.73 290.67 528.34 279.61 526.55 C 271.13 525.27 262.52 525.79 254.02 524.80 C 247.02 524.04 239.79 525.13 233.01 522.80 C 231.61 513.21 233.54 503.59 233.72 493.99 C 235.46 478.70 235.95 463.31 237.31 447.99 C 236.85 434.93 239.86 422.07 239.51 409.02 C 239.39 397.51 240.45 386.03 241.50 374.58 C 241.57 366.30 242.04 358.03 243.34 349.84 C 243.74 340.42 243.87 330.98 244.67 321.58 C 246.15 310.52 245.50 299.29 247.10 288.23 C 247.94 282.85 247.59 277.38 247.94 271.96 C 249.00 255.72 250.10 239.48 252.00 223.32 C 252.79 216.90 252.44 210.42 252.63 203.98 C 253.54 192.39 253.95 180.77 255.04 169.19 C 255.95 160.78 255.09 152.21 257.09 143.93 Z" />
<path fill="#edfe84" d=" M 475.26 148.13 C 477.62 146.78 480.51 147.66 483.08 147.77 C 486.56 165.04 487.49 182.85 493.30 199.60 C 496.22 210.34 499.85 220.87 502.54 231.67 C 502.35 234.73 501.61 237.79 502.10 240.86 C 503.82 254.29 506.13 267.63 507.85 281.06 C 509.95 295.77 511.27 310.59 513.58 325.27 C 516.83 341.47 517.50 358.06 520.69 374.26 C 521.63 379.23 522.05 384.27 522.58 389.30 C 523.27 395.71 524.95 401.98 525.49 408.41 C 526.61 421.72 529.07 434.86 530.87 448.08 C 534.10 474.86 538.57 501.48 541.60 528.29 C 541.93 531.56 543.52 534.46 544.75 537.45 C 544.67 539.42 544.62 541.40 544.62 543.38 C 535.70 542.47 526.71 542.87 517.81 541.76 C 509.21 540.98 500.55 541.78 491.96 541.00 C 489.62 540.65 486.94 540.60 485.15 538.85 C 483.40 537.04 483.31 534.36 482.94 532.03 C 482.26 524.10 480.36 516.35 479.01 508.52 C 478.46 505.28 474.73 504.66 472.02 504.50 C 462.35 503.96 452.74 502.32 443.04 502.60 C 437.76 502.79 432.56 501.44 427.30 501.65 C 424.12 501.85 423.17 505.45 422.23 507.91 C 420.50 513.69 417.76 519.14 416.54 525.07 C 415.77 528.35 415.33 532.26 412.24 534.29 C 409.89 536.19 406.69 535.37 403.96 535.15 C 392.41 533.55 380.71 533.81 369.13 532.66 C 364.05 532.35 358.82 532.74 354.00 530.80 C 353.99 524.97 356.54 519.66 358.32 514.24 C 360.95 506.67 363.83 499.16 365.40 491.28 C 367.28 481.77 371.01 472.79 373.45 463.43 C 376.97 453.06 379.42 442.38 382.82 431.97 C 385.10 423.41 388.33 415.14 390.55 406.56 C 391.94 401.24 394.26 396.23 395.87 390.98 C 398.62 381.51 402.77 372.53 405.91 363.20 C 407.99 356.59 408.58 349.59 411.10 343.11 C 415.37 332.28 418.21 320.99 421.95 309.98 C 427.83 291.75 433.51 273.45 440.18 255.49 C 445.43 239.85 449.90 223.98 455.03 208.30 C 459.73 193.32 463.91 178.17 469.10 163.35 C 470.86 158.19 472.09 152.66 475.26 148.13 Z" />
<path fill="#edfe84" d=" M 614.02 166.19 C 620.64 164.50 627.33 166.70 634.00 166.50 C 637.98 166.66 642.13 165.92 646.00 167.13 C 649.37 168.19 648.49 172.24 648.68 174.95 C 648.47 190.31 646.73 205.59 646.45 220.95 C 645.93 229.32 644.75 237.65 644.53 246.05 C 644.39 248.41 644.42 251.09 642.68 252.93 C 637.11 254.10 631.26 255.92 627.45 260.42 C 624.43 263.69 625.08 268.68 626.62 272.48 C 629.65 279.75 636.32 284.45 642.19 289.31 C 640.27 298.71 640.33 308.32 639.68 317.84 C 639.35 324.22 638.40 330.56 638.39 336.96 C 638.26 349.69 636.45 362.33 635.79 375.04 C 635.25 387.88 633.68 400.64 632.85 413.46 C 624.11 415.58 615.13 418.17 606.07 417.06 C 605.42 410.07 606.64 403.13 607.30 396.20 C 608.83 377.14 612.42 358.32 614.45 339.32 C 614.87 333.88 614.61 328.42 614.97 322.98 C 615.59 312.33 616.71 301.69 616.28 291.00 C 615.69 278.88 615.39 266.70 613.33 254.71 C 612.81 250.23 611.51 245.46 613.08 241.07 C 615.35 237.72 619.80 237.15 623.32 235.74 C 624.08 228.51 623.78 221.22 623.59 213.97 C 622.44 197.69 617.26 182.10 614.02 166.19 Z" />
<path fill="#edfe84" d=" M 779.35 180.21 C 786.20 178.47 792.83 175.44 800.00 175.38 C 808.71 175.27 817.61 174.89 826.05 177.52 C 838.72 180.08 850.39 186.45 860.32 194.59 C 866.81 200.55 872.53 207.36 877.45 214.67 C 881.29 219.99 885.03 225.44 887.71 231.47 C 892.06 240.62 893.62 250.76 897.68 260.03 C 901.69 276.66 902.73 293.95 901.59 310.99 C 901.43 319.66 901.62 328.33 901.54 337.00 C 901.48 345.36 899.51 353.59 899.56 361.96 C 899.62 370.01 898.43 377.99 898.30 386.04 C 897.21 394.38 897.78 402.82 896.68 411.16 C 895.04 424.41 895.08 437.82 892.97 451.01 C 889.35 469.58 885.72 488.40 877.78 505.71 C 871.83 518.60 863.94 530.80 853.51 540.52 C 843.21 548.77 831.88 555.78 819.77 561.05 C 802.10 568.56 781.42 568.28 763.67 561.19 C 750.32 555.38 738.09 546.45 729.19 534.87 C 724.13 527.45 718.68 520.13 715.54 511.64 C 714.43 508.56 712.49 505.93 710.61 503.30 C 708.86 493.39 707.83 483.36 707.40 473.31 C 706.30 459.20 704.47 445.12 704.64 430.95 C 704.83 424.58 702.93 418.45 702.12 412.19 C 701.88 400.71 704.45 389.42 704.43 377.95 C 704.77 363.93 706.54 349.99 707.29 335.99 C 711.72 339.00 714.75 343.92 719.73 346.08 C 724.85 346.89 730.32 345.39 734.66 342.61 C 741.50 337.35 746.07 329.87 750.75 322.76 C 755.74 316.08 761.29 309.68 768.07 304.75 C 768.46 320.39 765.77 335.92 765.62 351.55 C 765.62 362.73 763.78 373.79 763.37 384.95 C 762.47 403.31 759.97 421.60 760.50 440.01 C 760.42 450.29 760.19 460.69 762.55 470.79 C 765.11 481.21 766.27 492.43 772.66 501.42 C 776.15 506.30 779.74 512.25 786.08 513.59 C 793.85 515.73 802.26 513.36 808.51 508.49 C 813.78 504.36 817.73 498.77 820.59 492.76 C 825.64 482.05 828.75 470.53 830.61 458.86 C 832.24 449.23 831.92 439.40 833.44 429.76 C 834.27 424.21 834.60 418.61 834.60 413.01 C 834.58 402.32 836.50 391.74 836.54 381.06 C 836.54 374.41 837.26 367.81 837.94 361.21 C 838.93 352.43 837.95 343.56 839.15 334.80 C 840.71 319.59 841.94 304.31 841.55 289.00 C 841.98 276.90 840.29 264.64 835.95 253.31 C 832.06 244.49 827.20 235.10 818.15 230.65 C 812.55 227.34 805.84 228.64 799.88 229.98 C 793.08 232.37 789.58 239.12 785.47 244.52 C 780.66 251.59 773.92 256.97 768.35 263.39 C 763.72 268.73 758.09 273.22 754.18 279.17 C 750.76 284.34 747.25 289.48 742.99 294.01 C 738.18 299.31 733.51 305.94 725.84 306.94 C 719.51 308.62 714.09 304.02 709.70 300.12 C 711.30 289.15 712.94 278.17 715.37 267.35 C 717.62 256.67 722.62 246.89 726.52 236.77 C 730.44 228.83 733.89 220.52 739.46 213.55 C 744.41 207.16 748.76 200.16 755.23 195.13 C 762.07 188.47 770.50 183.65 779.35 180.21 Z" />
<path fill="#edfe84" d=" M 977.85 179.74 C 980.66 177.56 984.73 178.07 987.94 179.01 C 990.47 179.72 990.54 182.71 991.15 184.80 C 992.66 192.53 994.13 200.26 996.08 207.89 C 998.03 215.46 999.17 223.21 1001.22 230.75 C 1002.59 236.25 1004.77 241.53 1005.76 247.12 C 1007.21 255.30 1008.93 263.42 1010.42 271.59 C 1011.94 280.02 1014.60 288.19 1016.20 296.61 C 1017.07 301.23 1018.24 305.80 1019.65 310.29 C 1021.48 316.21 1021.88 322.45 1023.54 328.41 C 1026.32 338.87 1028.45 349.48 1030.91 360.01 C 1032.14 365.30 1032.86 370.74 1034.95 375.80 C 1037.16 375.32 1038.78 373.56 1039.59 371.51 C 1044.60 360.19 1047.18 348.00 1051.53 336.43 C 1054.97 327.69 1057.40 318.61 1060.86 309.87 C 1062.96 302.46 1067.34 295.90 1068.93 288.31 C 1070.21 282.40 1073.25 277.09 1074.93 271.31 C 1079.55 255.41 1085.54 239.94 1090.08 224.02 C 1094.48 211.48 1097.82 198.51 1103.56 186.49 C 1107.10 186.46 1111.05 185.71 1114.21 187.78 C 1115.66 190.60 1115.49 193.87 1115.67 196.96 C 1117.84 233.20 1120.72 269.39 1123.48 305.59 C 1123.66 319.07 1125.47 332.46 1125.58 345.95 C 1125.87 353.04 1127.45 360.01 1127.74 367.10 C 1128.42 375.09 1128.05 383.14 1129.02 391.10 C 1130.65 411.10 1131.40 431.18 1133.73 451.12 C 1134.55 458.63 1133.92 466.24 1135.21 473.72 C 1136.56 482.76 1135.98 491.92 1136.84 501.00 C 1138.04 510.21 1138.74 519.48 1139.33 528.75 C 1139.62 539.61 1141.37 550.38 1141.46 561.26 C 1141.44 567.97 1143.40 574.67 1142.34 581.37 C 1141.50 583.81 1138.54 583.61 1136.48 583.46 C 1121.70 581.68 1106.79 581.51 1091.93 580.88 C 1089.41 580.44 1084.92 581.22 1084.65 577.61 C 1082.40 552.67 1081.03 527.65 1078.56 502.73 C 1078.38 491.43 1076.31 480.28 1076.14 468.98 C 1075.02 461.08 1076.45 452.71 1073.13 445.23 C 1070.62 447.71 1069.08 450.90 1068.09 454.23 C 1065.20 463.22 1061.58 471.96 1058.76 480.97 C 1053.18 500.19 1045.96 518.88 1040.11 538.02 C 1037.89 545.72 1035.00 553.21 1032.79 560.91 C 1031.99 563.17 1031.29 565.74 1029.24 567.21 C 1026.85 568.06 1024.13 567.98 1021.74 567.25 C 1020.00 566.17 1019.50 564.04 1018.92 562.24 C 1016.30 552.35 1014.50 542.26 1011.84 532.38 C 1010.04 524.74 1008.28 517.08 1007.25 509.29 C 1006.03 500.46 1002.35 492.20 1001.21 483.35 C 999.91 474.14 996.53 465.44 994.32 456.46 C 992.49 449.95 991.88 442.87 987.99 437.15 C 984.72 441.49 984.26 447.04 983.12 452.18 C 980.39 464.88 978.47 477.75 975.15 490.32 C 972.53 503.36 970.97 516.62 967.54 529.50 C 965.55 538.66 963.49 547.82 961.93 557.08 C 961.18 560.91 960.61 564.81 959.41 568.54 C 958.90 569.50 958.66 571.13 957.36 571.28 C 950.57 572.44 943.73 570.90 936.95 570.52 C 930.29 570.27 923.66 569.43 916.99 569.51 C 912.40 569.57 907.84 568.86 903.48 567.43 C 903.01 560.50 905.53 553.88 906.26 547.06 C 907.93 534.33 912.31 522.19 914.33 509.53 C 916.00 500.63 917.84 491.77 919.37 482.85 C 920.59 472.93 923.37 463.32 925.17 453.52 C 926.99 443.80 929.72 434.27 931.15 424.49 C 932.26 416.60 934.80 408.96 935.41 401.00 C 936.33 389.45 940.39 378.47 941.77 366.99 C 942.71 358.91 946.20 351.32 946.55 343.15 C 946.83 336.29 949.49 329.88 950.81 323.22 C 953.43 312.03 955.08 300.65 957.24 289.38 C 959.72 279.81 960.56 269.96 962.29 260.26 C 965.08 249.65 966.70 238.79 968.55 227.99 C 970.55 216.55 973.32 205.27 975.33 193.83 C 976.18 189.14 976.37 184.29 977.85 179.74 Z" />
<path fill="#fefffd" d=" M 799.88 229.98 C 805.84 228.64 812.55 227.34 818.15 230.65 C 827.20 235.10 832.06 244.49 835.95 253.31 C 840.29 264.64 841.98 276.90 841.55 289.00 C 841.94 304.31 840.71 319.59 839.15 334.80 C 837.95 343.56 838.93 352.43 837.94 361.21 C 837.26 367.81 836.54 374.41 836.54 381.06 C 836.50 391.74 834.58 402.32 834.60 413.01 C 834.60 418.61 834.27 424.21 833.44 429.76 C 831.92 439.40 832.24 449.23 830.61 458.86 C 828.75 470.53 825.64 482.05 820.59 492.76 C 817.73 498.77 813.78 504.36 808.51 508.49 C 802.26 513.36 793.85 515.73 786.08 513.59 C 779.74 512.25 776.15 506.30 772.66 501.42 C 766.27 492.43 765.11 481.21 762.55 470.79 C 760.19 460.69 760.42 450.29 760.50 440.01 C 759.97 421.60 762.47 403.31 763.37 384.95 C 763.78 373.79 765.62 362.73 765.62 351.55 C 765.77 335.92 768.46 320.39 768.07 304.75 C 773.92 299.40 778.30 292.55 784.62 287.70 C 790.08 284.08 797.06 285.41 803.19 285.95 C 810.38 286.59 816.97 289.62 823.26 292.97 C 825.90 289.47 827.99 285.60 829.62 281.54 C 831.31 277.22 833.59 273.10 834.69 268.57 C 835.75 264.57 833.62 259.66 829.41 258.59 C 819.79 255.91 809.68 257.11 799.83 256.48 C 799.75 254.12 800.46 251.81 801.93 249.96 C 805.26 245.36 808.62 240.77 811.23 235.71 C 807.65 233.41 803.82 231.55 799.88 229.98 Z" />
<path fill="#b4dde5" d=" M 785.47 244.52 C 789.58 239.12 793.08 232.37 799.88 229.98 C 803.82 231.55 807.65 233.41 811.23 235.71 C 808.62 240.77 805.26 245.36 801.93 249.96 C 800.46 251.81 799.75 254.12 799.83 256.48 C 809.68 257.11 819.79 255.91 829.41 258.59 C 833.62 259.66 835.75 264.57 834.69 268.57 C 833.59 273.10 831.31 277.22 829.62 281.54 C 827.99 285.60 825.90 289.47 823.26 292.97 C 816.97 289.62 810.38 286.59 803.19 285.95 C 797.06 285.41 790.08 284.08 784.62 287.70 C 778.30 292.55 773.92 299.40 768.07 304.75 C 761.29 309.68 755.74 316.08 750.75 322.76 C 746.07 329.87 741.50 337.35 734.66 342.61 C 730.32 345.39 724.85 346.89 719.73 346.08 C 714.75 343.92 711.72 339.00 707.29 335.99 C 701.07 331.45 695.24 326.35 688.58 322.45 C 671.85 313.29 657.31 300.80 642.19 289.31 C 636.32 284.45 629.65 279.75 626.62 272.48 C 625.08 268.68 624.43 263.69 627.45 260.42 C 631.26 255.92 637.11 254.10 642.68 252.93 C 649.52 255.32 655.98 258.92 661.96 262.99 C 667.37 267.97 673.83 271.78 678.61 277.45 C 682.10 281.51 687.36 283.23 691.42 286.59 C 694.20 288.89 697.26 290.81 700.43 292.52 C 704.01 294.41 706.74 297.44 709.70 300.12 C 714.09 304.02 719.51 308.62 725.84 306.94 C 733.51 305.94 738.18 299.31 742.99 294.01 C 747.25 289.48 750.76 284.34 754.18 279.17 C 758.09 273.22 763.72 268.73 768.35 263.39 C 773.92 256.97 780.66 251.59 785.47 244.52 Z" />
<path fill="#fefffd" d=" M 642.19 289.31 C 657.31 300.80 671.85 313.29 688.58 322.45 C 695.24 326.35 701.07 331.45 707.29 335.99 C 706.54 349.99 704.77 363.93 704.43 377.95 C 704.45 389.42 701.88 400.71 702.12 412.19 C 698.74 409.10 696.05 404.95 691.74 403.10 C 686.77 402.39 681.87 404.10 677.03 404.99 C 662.39 408.24 647.40 409.75 632.85 413.46 C 633.68 400.64 635.25 387.88 635.79 375.04 C 636.45 362.33 638.26 349.69 638.39 336.96 C 638.40 330.56 639.35 324.22 639.68 317.84 C 640.33 308.32 640.27 298.71 642.19 289.31 Z" />
<path fill="#fefffd" d=" M 457.14 390.13 C 458.65 385.44 459.70 380.38 463.04 376.59 C 466.64 383.82 465.55 392.24 467.02 400.01 C 467.99 415.69 470.73 431.25 470.67 447.00 C 470.48 448.46 470.95 450.52 469.24 451.24 C 465.02 452.98 460.39 451.81 456.00 451.75 C 451.83 451.46 447.50 451.99 443.50 450.58 C 441.92 450.10 440.86 448.54 440.83 446.94 C 445.63 427.84 451.74 409.07 457.14 390.13 Z" />
<path fill="#fefffd" d=" M 652.95 442.64 C 659.05 441.43 664.61 438.01 670.84 437.52 C 675.03 438.43 675.19 443.77 676.06 447.18 C 676.96 454.90 680.72 462.09 680.40 469.97 C 680.23 475.34 680.85 480.68 681.71 485.98 C 681.42 492.10 680.51 498.19 680.67 504.34 C 675.52 503.27 670.32 502.33 665.05 502.36 C 655.92 502.39 646.84 501.28 637.75 500.60 C 635.13 500.34 632.40 500.17 630.00 499.00 C 627.56 493.34 628.72 486.95 628.81 480.98 C 629.14 470.55 631.28 460.16 630.15 449.71 C 637.74 447.31 645.12 444.24 652.95 442.64 Z" />
<path fill="#edfe84" d=" M 605.74 458.60 C 613.48 454.66 621.78 451.95 630.15 449.71 C 631.28 460.16 629.14 470.55 628.81 480.98 C 628.72 486.95 627.56 493.34 630.00 499.00 C 632.40 500.17 635.13 500.34 637.75 500.60 C 646.84 501.28 655.92 502.39 665.05 502.36 C 670.32 502.33 675.52 503.27 680.67 504.34 C 680.51 498.19 681.42 492.10 681.71 485.98 C 682.62 492.28 681.22 498.60 681.42 504.92 C 681.66 512.54 680.36 520.08 680.44 527.69 C 680.47 535.79 679.53 543.84 679.50 551.93 C 672.69 553.26 665.83 551.69 658.99 551.62 C 652.55 551.43 646.07 551.77 639.66 550.99 C 631.50 549.95 623.21 551.06 615.11 549.42 C 606.71 547.73 598.12 548.96 589.65 548.04 C 585.54 547.57 581.41 547.36 577.31 546.84 C 577.01 538.81 579.05 531.00 579.99 523.09 C 581.28 510.46 582.75 497.74 586.45 485.55 C 588.41 479.15 592.85 474.02 596.33 468.44 C 598.75 464.57 601.54 460.68 605.74 458.60 Z" />
<path fill="#edfe84" d=" M 695.31 591.50 C 702.24 587.55 710.39 588.40 717.98 589.23 C 718.59 590.28 719.12 591.39 719.57 592.53 C 717.18 593.45 714.59 593.72 712.05 593.62 C 706.42 593.48 700.49 594.20 695.31 591.50 Z" />
</svg>
